<svg width="176" height="80" viewBox="0 0 176 80" fill="none" xmlns="http://www.w3.org/2000/svg">
<g clip-path="url(#clip0_168_3922)">
<path d="M21.9316 42.0742L26.443 51.2156C26.7568 51.8514 27.3634 52.2919 28.0651 52.3937L38.1535 53.8597C39.9207 54.1167 40.6258 56.2878 39.3475 57.5335L32.0475 64.6491C31.5402 65.1438 31.3083 65.8572 31.4284 66.5556L33.1514 76.6032C33.4535 78.3629 31.6062 79.7045 30.0259 78.8743L21.0029 74.1309C20.3755 73.8013 19.6253 73.8013 18.9979 74.1309L9.97495 78.8743C8.39464 79.7054 6.54733 78.3629 6.84938 76.6032L8.57236 66.5556C8.69251 65.8572 8.46056 65.1438 7.95326 64.6491L0.653297 57.5335C-0.624968 56.2869 0.0800799 54.1159 1.84729 53.8597L11.9357 52.3937C12.6374 52.2919 13.244 51.8514 13.5578 51.2156L18.0692 42.0742C18.8586 40.473 21.1414 40.473 21.9316 42.0742Z" fill="#FA9706"/>
</g>
<g clip-path="url(#clip1_168_3922)">
<path d="M91.8631 4.14858L100.886 22.4314C101.514 23.703 102.727 24.5841 104.13 24.7877L124.307 27.7197C127.841 28.2337 129.252 32.5758 126.695 35.0672L112.095 49.2984C111.08 50.2879 110.617 51.7147 110.857 53.1115L114.303 73.2066C114.907 76.726 111.212 79.4093 108.052 77.7489L90.0058 68.2621C88.7509 67.6029 87.2507 67.6029 85.9958 68.2621L67.9499 77.7489C64.7893 79.411 61.0947 76.726 61.6988 73.2066L65.1447 53.1115C65.385 51.7147 64.9211 50.2879 63.9065 49.2984L49.3066 35.0672C46.7501 32.5741 48.1602 28.232 51.6946 27.7197L71.8715 24.7877C73.2749 24.5841 74.4881 23.703 75.1155 22.4314L84.1385 4.14858C85.7171 0.946242 90.2828 0.946242 91.8631 4.14858Z" fill="#FA9706"/>
</g>
<g clip-path="url(#clip2_168_3922)">
<path d="M157.932 42.0742L162.443 51.2156C162.757 51.8514 163.363 52.2919 164.065 52.3937L174.154 53.8597C175.921 54.1167 176.626 56.2878 175.348 57.5335L168.048 64.6491C167.54 65.1438 167.308 65.8572 167.428 66.5556L169.151 76.6032C169.453 78.3629 167.606 79.7045 166.026 78.8743L157.003 74.1309C156.375 73.8013 155.625 73.8013 154.998 74.1309L145.975 78.8743C144.395 79.7054 142.547 78.3629 142.849 76.6032L144.572 66.5556C144.693 65.8572 144.461 65.1438 143.953 64.6491L136.653 57.5335C135.375 56.2869 136.08 54.1159 137.847 53.8597L147.936 52.3937C148.637 52.2919 149.244 51.8514 149.558 51.2156L154.069 42.0742C154.859 40.473 157.141 40.473 157.932 42.0742Z" fill="#FA9706"/>
</g>
<defs>
<clipPath id="clip0_168_3922">
<rect width="40" height="40" fill="white" transform="translate(0 40)"/>
</clipPath>
<clipPath id="clip1_168_3922">
<rect width="80" height="80" fill="white" transform="translate(48)"/>
</clipPath>
<clipPath id="clip2_168_3922">
<rect width="40" height="40" fill="white" transform="translate(136 40)"/>
</clipPath>
</defs>
</svg>
