<svg width="64" height="64" viewBox="0 0 64 64" fill="none" xmlns="http://www.w3.org/2000/svg">
<g clip-path="url(#clip0_168_3916)">
<path d="M35.0905 3.31886L42.3088 17.9451C42.8108 18.9624 43.7813 19.6673 44.9041 19.8302L61.0456 22.1758C63.8731 22.5869 65.0012 26.0606 62.956 28.0538L51.276 39.4387C50.4643 40.2303 50.0932 41.3718 50.2854 42.4892L53.0422 58.5653C53.5255 61.3808 50.5698 63.5275 48.0413 62.1991L33.6046 54.6096C32.6007 54.0823 31.4005 54.0823 30.3966 54.6096L15.9599 62.1991C13.4314 63.5288 10.4757 61.3808 10.959 58.5653L13.7157 42.4892C13.908 41.3718 13.5368 40.2303 12.7252 39.4387L1.04523 28.0538C-0.999997 26.0593 0.128079 22.5856 2.95561 22.1758L19.0971 19.8302C20.2199 19.6673 21.1904 18.9624 21.6924 17.9451L28.9107 3.31886C30.1736 0.756994 33.8262 0.756994 35.0905 3.31886Z" fill="#FA9706"/>
</g>
<defs>
<clipPath id="clip0_168_3916">
<rect width="64" height="64" fill="white"/>
</clipPath>
</defs>
</svg>
